<?xml version="1.0" encoding="UTF-8" standalone="no"?>
<!-- Created with Inkscape (http://www.inkscape.org/) -->

<svg
   xmlns:dc="http://purl.org/dc/elements/1.1/"
   xmlns:cc="http://creativecommons.org/ns#"
   xmlns:rdf="http://www.w3.org/1999/02/22-rdf-syntax-ns#"
   xmlns:svg="http://www.w3.org/2000/svg"
   xmlns="http://www.w3.org/2000/svg"
   xmlns:sodipodi="http://sodipodi.sourceforge.net/DTD/sodipodi-0.dtd"
   xmlns:inkscape="http://www.inkscape.org/namespaces/inkscape"
   width="193.44151"
   height="222.59352"
   id="svg2"
   version="1.1"
   inkscape:version="0.48.4 r9939"
   sodipodi:docname="nonelement_2_transparent.svg">
  <defs
     id="defs4" />
  <sodipodi:namedview
     id="base"
     pagecolor="#ffffff"
     bordercolor="#666666"
     borderopacity="1"
     inkscape:pageopacity="0.0"
     inkscape:pageshadow="2"
     inkscape:zoom="0.5"
     inkscape:cx="85.31885"
     inkscape:cy="-234.14564"
     inkscape:document-units="px"
     inkscape:current-layer="layer1"
     showgrid="false"
     inkscape:snap-object-midpoints="true"
     inkscape:snap-global="true"
     inkscape:snap-bbox="false"
     inkscape:snap-nodes="true"
     inkscape:snap-bbox-edge-midpoints="false"
     inkscape:object-paths="false"
     inkscape:bbox-nodes="false"
     inkscape:bbox-paths="false"
     inkscape:snap-midpoints="false"
     inkscape:window-width="1440"
     inkscape:window-height="844"
     inkscape:window-x="0"
     inkscape:window-y="27"
     inkscape:window-maximized="1"
     showborder="true"
     inkscape:showpageshadow="false"
     borderlayer="false"
     fit-margin-top="0"
     fit-margin-left="0"
     fit-margin-right="0"
     fit-margin-bottom="0" />
  <metadata
     id="metadata7">
    <rdf:RDF>
      <cc:Work
         rdf:about="">
        <dc:format>image/svg+xml</dc:format>
        <dc:type
           rdf:resource="http://purl.org/dc/dcmitype/StillImage" />
        <dc:title />
      </cc:Work>
    </rdf:RDF>
  </metadata>
  <g
     inkscape:label="Layer 1"
     inkscape:groupmode="layer"
     id="layer1"
     transform="translate(-26.35092,-20.457594)">
    <g
       id="g4451-3-0-2"
       transform="translate(-36.734449,-26.471298)">
      <path
         transform="translate(-28.765299,-114.13653)"
         d="m 282.79218,326.76056 -94.22075,54.39838 -94.220762,-54.39838 0,-108.79676 94.220762,-54.39838 94.22076,54.39838 z"
         inkscape:randomized="0"
         inkscape:rounded="0"
         inkscape:flatsided="true"
         sodipodi:arg2="1.0471976"
         sodipodi:arg1="0.52359878"
         sodipodi:r2="54.39838"
         sodipodi:r1="108.79676"
         sodipodi:cy="272.36218"
         sodipodi:cx="188.57143"
         sodipodi:sides="6"
         id="path3759-5-7-9"
         style="fill:none;stroke:#1c1c1c;stroke-width:5;stroke-miterlimit:4;stroke-opacity:1;stroke-dasharray:none"
         sodipodi:type="star" />
      <path
         style="fill:#1c1c1c;fill-opacity:1;stroke:none"
         d="m 414.8125,127.46875 c -6.89779,0 -81.89486,43.30759 -85.34375,49.28125 -3.44889,5.97366 -3.44889,92.55759 0,98.53125 3.44889,5.97366 78.44596,49.28125 85.34375,49.28125 6.89779,0 81.89486,-43.30759 85.34375,-49.28125 3.44889,-5.97366 3.44889,-92.55759 0,-98.53125 -3.44889,-5.97366 -78.44596,-49.28125 -85.34375,-49.28125 z m 0,30.4375 c 37.56735,0 68.125,30.55343 68.125,68.125 0,37.57157 -30.55765,68.0625 -68.125,68.0625 -37.56735,0 -68.125,-30.49093 -68.125,-68.0625 0,-37.57157 30.55765,-68.125 68.125,-68.125 z m 0,8.3125 c -33.0503,0 -59.75,26.75849 -59.75,59.8125 0,33.054 26.6997,59.75 59.75,59.75 33.0503,0 59.75,-26.696 59.75,-59.75 0,-33.05401 -26.6997,-59.8125 -59.75,-59.8125 z m 0,4.46875 c 30.50559,0 55.34375,24.83474 55.34375,55.34375 0,30.50902 -24.83816,55.28125 -55.34375,55.28125 -30.50559,0 -55.34375,-24.77223 -55.34375,-55.28125 0,-30.50901 24.83816,-55.34375 55.34375,-55.34375 z m 0,8.34375 c -25.98853,0 -46.96875,21.00855 -46.96875,47 0,25.99145 20.98022,46.96875 46.96875,46.96875 25.98854,0 46.9375,-20.9773 46.9375,-46.96875 0,-25.99145 -20.94896,-47 -46.9375,-47 z m 0,4.4375 c 23.44382,0 42.53125,19.11604 42.53125,42.5625 0,23.44645 -19.08743,42.53125 -42.53125,42.53125 -23.44382,0 -42.53125,-19.0848 -42.53125,-42.53125 0,-23.44646 19.08743,-42.5625 42.53125,-42.5625 z m 0,8.34375 c -18.92677,0 -34.1875,15.28985 -34.1875,34.21875 0,18.92889 15.26073,34.15625 34.1875,34.15625 18.92677,0 34.1875,-15.22736 34.1875,-34.15625 0,-18.9289 -15.26073,-34.21875 -34.1875,-34.21875 z"
         transform="translate(-255.26555,-67.528702)"
         id="path3759-8-2-4-1"
         inkscape:connector-curvature="0" />
    </g>
  </g>
</svg>
